<?xml version="1.0" standalone="no"?>
<!DOCTYPE svg PUBLIC "-//W3C//DTD SVG 20010904//EN"
 "http://www.w3.org/TR/2001/REC-SVG-20010904/DTD/svg10.dtd">
<svg version="1.0" xmlns="http://www.w3.org/2000/svg"
 width="900.000000pt" height="900.000000pt" viewBox="0 0 900.000000 900.000000"
 preserveAspectRatio="xMidYMid meet">
<metadata>
Created by potrace 1.11, written by Peter Selinger 2001-2013
</metadata>
<g transform="translate(0.000000,900.000000) scale(0.100000,-0.100000)"
fill="#000000" stroke="none">
<path d="M4155 8994 c-52 -6 -264 -30 -385 -45 -52 -6 -99 -15 -105 -19 -10
-8 -123 -26 -137 -22 -5 1 -8 -2 -8 -8 0 -5 -12 -10 -27 -10 -16 0 -68 -12
-118 -26 -49 -14 -124 -34 -165 -45 -41 -11 -110 -33 -153 -50 -43 -16 -82
-27 -87 -24 -4 3 -10 0 -12 -6 -2 -6 -16 -12 -31 -12 -15 -1 -27 -5 -27 -9 0
-5 -3 -7 -7 -6 -5 1 -23 -6 -41 -15 -18 -10 -37 -15 -42 -12 -6 3 -10 1 -10
-4 0 -6 -5 -11 -10 -11 -13 0 -246 -107 -375 -172 -51 -25 -218 -121 -225
-128 -3 -3 -16 -11 -30 -18 -37 -18 -124 -73 -130 -82 -3 -4 -18 -15 -35 -24
-16 -9 -44 -27 -60 -39 -17 -12 -62 -44 -100 -71 -39 -28 -73 -54 -76 -59 -4
-6 -14 -7 -24 -4 -9 4 -14 3 -11 -1 7 -11 -3 -23 -54 -62 -53 -42 -105 -86
-137 -119 -12 -13 -23 -22 -23 -19 0 3 -30 -23 -67 -58 -37 -34 -71 -60 -77
-57 -5 4 -6 1 -1 -6 5 -8 -31 -51 -103 -124 -143 -146 -210 -217 -205 -217 2
0 -6 -10 -18 -22 -11 -13 -46 -56 -76 -96 -31 -40 -60 -69 -65 -65 -7 4 -8 1
-3 -6 4 -7 -1 -22 -12 -34 -19 -23 -45 -59 -101 -142 -19 -27 -39 -49 -44 -47
-5 1 -7 -2 -3 -8 3 -6 -15 -41 -41 -78 -45 -65 -69 -105 -143 -242 -19 -36
-38 -66 -43 -68 -4 -2 -8 -9 -8 -16 0 -18 -24 -66 -32 -66 -5 0 -8 -7 -8 -15
0 -8 -5 -15 -11 -15 -5 0 -8 -4 -5 -9 8 -12 -4 -42 -13 -37 -4 3 -8 -4 -8 -15
-1 -11 -18 -53 -37 -92 -20 -40 -36 -75 -36 -79 0 -4 -13 -35 -29 -70 -16 -35
-34 -81 -41 -103 -7 -22 -18 -53 -25 -70 -7 -16 -29 -84 -49 -150 -20 -66 -44
-142 -53 -170 -9 -27 -24 -88 -34 -135 -9 -47 -22 -103 -28 -125 -6 -22 -11
-56 -11 -77 0 -20 -4 -38 -9 -40 -5 -1 -14 -43 -20 -93 -6 -49 -18 -133 -26
-185 -11 -65 -17 -200 -22 -430 -5 -341 1 -496 33 -725 8 -60 17 -123 19 -140
1 -16 8 -48 14 -71 6 -22 15 -67 20 -100 5 -32 21 -102 36 -154 14 -52 32
-120 39 -150 8 -30 18 -68 24 -85 5 -16 16 -50 23 -75 7 -25 16 -49 20 -55 4
-5 10 -28 14 -50 4 -22 11 -45 16 -50 4 -6 15 -33 25 -60 9 -28 21 -53 26 -56
5 -4 11 -25 11 -48 2 -29 6 -40 15 -36 10 3 11 -1 7 -16 -5 -15 -4 -19 4 -15
7 5 11 -2 11 -18 0 -14 3 -26 8 -26 4 0 13 -15 21 -33 27 -63 96 -203 118
-239 13 -21 23 -44 23 -52 0 -8 6 -19 13 -23 14 -9 27 -29 57 -90 12 -24 25
-43 30 -43 4 0 11 -11 14 -25 5 -20 56 -102 93 -150 5 -5 26 -37 47 -70 22
-33 79 -113 127 -177 48 -64 84 -119 81 -123 -4 -4 -2 -5 4 -3 6 1 31 -22 56
-52 59 -72 96 -114 136 -157 18 -18 30 -39 26 -45 -4 -6 -3 -8 3 -5 13 8 236
-211 228 -224 -3 -5 0 -7 7 -4 15 5 164 -122 160 -137 -1 -5 2 -7 8 -3 5 3 21
-5 34 -19 13 -14 26 -26 30 -26 16 0 85 -64 79 -73 -3 -6 -1 -7 5 -3 6 4 40
-15 74 -41 35 -27 93 -68 130 -92 37 -24 65 -47 62 -52 -3 -5 2 -6 10 -3 9 3
16 1 16 -5 0 -6 5 -11 10 -11 6 0 29 -12 53 -27 23 -15 60 -37 82 -50 22 -12
39 -27 37 -33 -1 -6 1 -9 6 -6 5 3 28 -4 51 -16 32 -16 39 -23 29 -30 -10 -7
-8 -8 5 -4 9 3 33 -2 52 -11 29 -14 33 -19 22 -32 -10 -14 -10 -14 4 -3 13 10
22 10 43 1 14 -7 26 -16 26 -21 0 -4 3 -7 7 -6 5 1 35 -10 67 -26 82 -39 205
-92 301 -128 44 -17 87 -37 96 -44 9 -8 18 -12 21 -9 2 3 51 -11 109 -31 57
-19 111 -37 119 -39 8 -2 51 -13 95 -25 269 -74 555 -125 570 -101 5 9 11 9
23 -2 33 -30 231 -49 532 -53 273 -3 345 0 600 25 152 16 461 72 600 111 237
66 496 149 547 175 16 8 32 15 36 15 9 0 84 33 140 61 39 20 63 26 37 9 -9 -6
-10 -10 -3 -10 7 0 16 6 20 13 4 8 60 40 123 72 179 91 213 109 242 128 15 11
32 16 37 13 5 -4 13 -1 17 5 4 8 3 9 -4 5 -7 -4 -12 -5 -12 -3 0 11 123 76
132 71 6 -4 8 -3 5 3 -3 5 44 43 106 84 62 41 118 81 125 89 12 13 13 13 7 0
-4 -9 -1 -8 8 3 8 10 40 37 70 60 116 89 196 158 299 256 59 57 112 100 118
96 5 -3 7 0 4 8 -6 18 21 41 37 31 8 -5 9 -3 4 5 -9 16 143 173 158 164 6 -4
7 -1 2 6 -4 8 7 28 33 54 22 23 76 89 121 147 45 58 90 115 100 127 11 13 29
38 41 58 12 19 27 32 32 29 6 -4 8 -2 5 3 -9 14 137 235 148 226 4 -5 5 -2 1
5 -7 12 57 123 75 130 4 2 5 10 2 18 -3 7 1 16 9 19 8 3 15 11 15 18 1 23 151
306 159 299 4 -4 4 -2 1 4 -7 11 14 72 56 164 14 30 42 105 63 167 21 61 43
109 48 106 5 -4 6 -1 2 5 -3 6 10 64 29 129 76 250 128 508 171 853 12 95 16
679 5 797 -12 134 -43 368 -61 466 -6 31 -8 62 -4 69 4 7 3 8 -4 4 -8 -5 -12
1 -12 16 0 13 -15 84 -34 158 -49 193 -61 234 -96 338 -17 51 -28 98 -24 104
4 7 3 8 -4 4 -7 -4 -13 -2 -13 3 -2 15 -4 22 -18 56 -6 17 -21 55 -32 85 -12
30 -39 94 -60 143 -22 48 -37 93 -33 99 4 6 3 8 -3 5 -11 -7 -79 131 -75 152
2 7 -1 10 -7 6 -10 -5 -12 -1 -11 20 1 3 -6 13 -15 22 -9 8 -14 22 -11 30 3 8
2 12 -3 9 -10 -6 -56 81 -54 101 0 7 -3 11 -7 8 -12 -7 -73 102 -65 115 4 6 1
9 -5 8 -6 -2 -21 13 -33 33 -41 65 -123 186 -171 248 -25 34 -44 67 -40 73 4
6 3 8 -3 5 -9 -6 -73 63 -73 78 0 3 -10 16 -22 29 -13 13 -41 46 -63 72 -80
97 -150 172 -299 319 -87 86 -150 156 -148 165 2 11 1 12 -6 3 -6 -9 -29 4
-82 47 -41 33 -74 65 -72 71 1 6 -1 8 -6 5 -4 -3 -20 5 -34 17 -14 12 -36 29
-48 37 -12 8 -28 20 -34 26 -21 20 -412 279 -426 282 -22 5 -60 39 -52 47 4 5
2 5 -4 2 -14 -8 -148 56 -139 65 4 3 0 5 -7 5 -7 -1 -65 23 -128 54 -63 31
-125 60 -138 63 -12 4 -19 12 -16 18 4 6 2 8 -4 4 -10 -6 -74 15 -157 53 -22
10 -99 38 -172 62 -87 28 -128 46 -120 52 8 6 6 7 -6 3 -17 -6 -69 6 -242 56
-38 11 -92 24 -120 28 -27 5 -75 14 -105 20 -64 14 -138 27 -195 35 -22 2 -89
12 -150 21 -80 11 -209 16 -470 19 -198 1 -378 1 -400 -1z m-301 -8700 c3 -8
2 -12 -4 -9 -6 3 -10 10 -10 16 0 14 7 11 14 -7z m16 -74 c0 -5 -2 -10 -4 -10
-3 0 -8 5 -11 10 -3 6 -1 10 4 10 6 0 11 -4 11 -10z m17 -56 c-3 -3 -12 -4
-19 -1 -8 3 -5 6 6 6 11 1 17 -2 13 -5z m-2 -24 c3 -5 1 -10 -4 -10 -6 0 -11
5 -11 10 0 6 2 10 4 10 3 0 8 -4 11 -10z m2 -45 c0 -20 -4 -19 -17 5 -8 15 -8
18 3 14 8 -3 14 -11 14 -19z"/>
<path d="M3358 8893 c7 -3 16 -2 19 1 4 3 -2 6 -13 5 -11 0 -14 -3 -6 -6z"/>
<path d="M2888 8753 c7 -3 16 -2 19 1 4 3 -2 6 -13 5 -11 0 -14 -3 -6 -6z"/>
<path d="M7255 8101 c-3 -5 -2 -12 3 -15 5 -3 9 1 9 9 0 17 -3 19 -12 6z"/>
<path d="M8115 7229 c-4 -6 -5 -12 -2 -15 2 -3 7 2 10 11 7 17 1 20 -8 4z"/>
<path d="M8367 6823 c3 -7 6 -13 8 -13 2 0 5 6 8 13 3 8 -1 14 -8 14 -7 0 -11
-6 -8 -14z"/>
<path d="M480 6671 c0 -6 4 -13 10 -16 6 -3 7 1 4 9 -7 18 -14 21 -14 7z"/>
<path d="M8376 2133 c-6 -14 -5 -15 5 -6 7 7 10 15 7 18 -3 3 -9 -2 -12 -12z"/>
<path d="M7720 1347 c0 -2 6 -10 14 -16 11 -9 16 -9 22 1 4 7 4 10 -1 6 -4 -4
-14 -3 -22 3 -7 6 -13 9 -13 6z"/>
<path d="M6709 558 c-5 -18 -6 -38 -1 -34 7 8 12 36 6 36 -2 0 -4 -1 -5 -2z"/>
</g>
</svg>
